<?xml version="1.0" standalone="no"?>
<!DOCTYPE svg PUBLIC "-//W3C//DTD SVG 20010904//EN"
 "http://www.w3.org/TR/2001/REC-SVG-20010904/DTD/svg10.dtd">
<svg version="1.0" xmlns="http://www.w3.org/2000/svg"
 width="512.000000pt" height="512.000000pt" viewBox="0 0 512.000000 512.000000"
 preserveAspectRatio="xMidYMid meet">
<metadata>
Created by potrace 1.14, written by Peter Selinger 2001-2017
</metadata>
<g transform="translate(0.000000,512.000000) scale(0.100000,-0.100000)"
fill="#000000" stroke="none">
<path d="M2265 4774 c-377 -51 -735 -197 -1045 -427 -124 -92 -358 -327 -447
-447 -297 -404 -443 -844 -443 -1340 0 -347 70 -661 216 -965 47 -98 162 -295
172 -295 4 0 419 783 922 1740 503 957 917 1740 920 1740 3 0 417 -783 920
-1740 503 -957 918 -1740 922 -1740 10 0 125 197 172 295 145 303 216 620 216
965 0 495 -147 940 -443 1340 -92 124 -326 359 -447 447 -321 236 -671 378
-1053 428 -145 18 -442 18 -582 -1z"/>
<path d="M1888 2881 c-368 -699 -668 -1272 -668 -1275 0 -3 603 -6 1340 -6
737 0 1340 3 1340 6 0 9 -1335 2544 -1340 2544 -3 0 -305 -571 -672 -1269z"/>
<path d="M756 1243 c166 -224 402 -441 629 -583 255 -159 583 -275 883 -314
160 -21 424 -21 584 0 598 77 1138 398 1512 897 l28 37 -1832 0 -1832 0 28
-37z"/>
</g>
</svg>
